<svg viewBox="8.4 17.97752808988764 176.39999999999998 51.53558052434457" xmlns="http://www.w3.org/2000/svg" style="max-height: 500px" width="176.39999999999998" height="51.53558052434457">
  <defs>
    
    <linearGradient y2="100%" x2="100%" y1="0%" x1="0%" id="birdGradient">
      <stop style="stop-color:#4FC3F7;stop-opacity:1" offset="0%"/>
      <stop style="stop-color:#29B6F6;stop-opacity:1" offset="50%"/>
      <stop style="stop-color:#0288D1;stop-opacity:1" offset="100%"/>
    </linearGradient>
    
    
    <linearGradient y2="0%" x2="100%" y1="0%" x1="0%" id="textGradient">
      <stop style="stop-color:#1976D2;stop-opacity:1" offset="0%"/>
      <stop style="stop-color:#0288D1;stop-opacity:1" offset="100%"/>
    </linearGradient>
    
    
    <filter height="140%" width="140%" y="-20%" x="-20%" id="shadow">
      <feDropShadow flood-opacity="0.1" flood-color="#000000" stdDeviation="2" dy="2" dx="2"/>
    </filter>
  </defs>
  
  
  <g filter="url(#shadow)" transform="translate(10, 15)">
    
    <ellipse fill="url(#birdGradient)" ry="15" rx="20" cy="35" cx="25"/>
    
    
    <circle fill="url(#birdGradient)" r="12" cy="20" cx="35"/>
    
    
    <path fill="#FF9800" d="M 45 18 L 52 20 L 45 22 Z"/>
    
    
    <circle fill="white" r="2" cy="17" cx="38"/>
    <circle fill="#333" r="1" cy="16.5" cx="39"/>
    
    
    <ellipse opacity="0.7" fill="#0277BD" ry="8" rx="12" cy="30" cx="20"/>
    
    
    <path fill="url(#birdGradient)" d="M 8 40 Q 2 35 5 28 Q 8 32 12 35 Z"/>
    
    
    <ellipse opacity="0.5" fill="#01579B" ry="4" rx="6" cy="28" cx="22"/>
  </g>
  
  
  <text fill="url(#textGradient)" font-weight="600" font-size="28" font-family="Arial, Helvetica, sans-serif" y="45" x="80">
    Tweetle
  </text>
  
  
  <rect rx="1" opacity="0.6" fill="#4FC3F7" height="2" width="60" y="52" x="80"/>
  
  
  <circle opacity="0.4" fill="#4FC3F7" r="3" cy="20" cx="250"/>
  <circle opacity="0.5" fill="#29B6F6" r="2" cy="25" cx="260"/>
  <circle opacity="0.3" fill="#0288D1" r="2.5" cy="18" cx="270"/>
</svg>